<?xml version="1.0" encoding="utf-8"?>
<!-- Generator: Adobe Illustrator 24.1.0, SVG Export Plug-In . SVG Version: 6.00 Build 0)  -->
<svg version="1.1" id="Layer_1" xmlns="http://www.w3.org/2000/svg" xmlns:xlink="http://www.w3.org/1999/xlink" x="0px" y="0px"
	 viewBox="0 0 566.93 566.93" style="enable-background:new 0 0 566.93 566.93;" xml:space="preserve">
<style type="text/css">
	.st0{clip-path:url(#SVGID_2_);}
	.st1{fill:#55127F;}
</style>
<path d="M133,251.55c0,0-7-16.8-27.69-17.11s-29.25,14.31-30.49,26.91c-1.24,12.6,9.18,29.4,29.87,29.25c0,0,8.4,0.47,13.3-1.56
	s8.3-2.8,9.18-1.32c1.07,1.81-0.18,3.07-3.27,4.2c-2.92,1.07-4.39,2.08-3.46,3.25c0.93,1.17,15.44-1.08,17.21-0.88
	c1.81,0.21,2.51,3.73-0.58,4.08c-3.09,0.35-11.49,0.35-11.49,1.98c0,1.63,15.75,0.35,18.14,0.88c2.82,0.62,2.8,4.32-0.76,4.43
	c-3.56,0.12-17.22-0.98-17.38,0c-0.21,1.26,5.09,1.31,7.58,1.58c2.61,0.27,7.49,0.39,7.47,2.68c-0.02,2.42-2.57,2.57-6.71,1.93
	c-4.14-0.64-9.86-1.34-10.21-0.58c-0.35,0.76,5.1,1.3,7.29,1.58c2.1,0.26,2.45,1.75,1.81,2.8c-0.43,0.7-1.17,1.4-5.02,0.82
	c-3.85-0.58-13.48-2.57-15.46-2.92c-1.98-0.35-3.73,0.17-4.38,1.75s2.6,4.59,8.09,7.78c5.48,3.19,10.97,7.12,19.91,6.11
	c8.94-1.01,26.95-10.15,39.55-25.55c0,0,11.97-13.14,6.03-18.16c-7-5.91-14.78-0.39-24.11,1.71c-9.33,2.1-15.66,2.54-17.44,2.28
	c-2.19-0.32-2.74-2.89,0.47-3.73c3.07-0.81,7.58-0.58,7.06-1.63s-7.82,0.53-12.37,0.58c-4.55,0.06-4.49-1.4-4.55-2.04
	c-0.06-0.64,0.61-2.21,3.38-2.22c3.97-0.01,11.61-0.64,12.02-1.46s-14.93-0.02-18.14-0.29c-2.91-0.24-2.28-4.43,0.18-4.43
	c2.45,0,17.35,0.4,17.68-0.7c0.56-1.91-12.5-0.66-13.77-3.33c-1.03-2.16,2.04-3.09,7.12-2.63c4.9,0.45,12.37,1.98,11.84-0.06
	c-0.53-2.04-7.99-1.93-7.12-6.07c0,0,0.6-2.39,4.51-0.99c3.91,1.4,15.15,4.84,22.26,2.92c7.12-1.93,14.99-9.45,9.51-21.93
	S145.91,224.21,133,251.55z"/>
<g>
	<path d="M221.27,258.36h-20.12v-30.11h7.66v23.94h12.46V258.36z"/>
	<path d="M224.24,230.17c0-2.04,1.65-3.61,3.8-3.61s3.78,1.57,3.78,3.61c0,2.05-1.63,3.63-3.78,3.63S224.24,232.21,224.24,230.17z
		 M224.34,235.63h7.39v22.73h-7.39V235.63z"/>
	<path d="M237.2,241.08h-3.03v-5.28h3.03v-1.31c0-4.49,2.17-6.55,8.12-6.55c1.31,0,2.77,0.14,3.59,0.31v4.59
		c-0.42-0.06-1.04-0.12-1.63-0.12c-2.02,0-2.88,0.79-2.88,2.11v0.98h4.42v5.28h-4.22v17.28h-7.41V241.08z"/>
	<path d="M273.03,251.18c-0.71,4.7-4.88,7.72-10.83,7.72c-7.24,0-11.56-4.44-11.56-11.79c0-7.34,4.36-12.02,11.31-12.02
		c6.85,0,11.21,4.49,11.21,11.44v2.09h-15.34v0.46c0,2.71,1.82,4.59,4.49,4.59c1.98,0,3.53-0.94,4.05-2.48H273.03z M257.92,244.4
		h8.26c-0.12-2.42-1.77-4.05-4.11-4.05C259.8,240.35,258.11,242.04,257.92,244.4z"/>
	<path d="M302.71,251.74h-9.85l-1.92,6.62h-7.81l10.12-30.11h9.37l10.12,30.11h-8.14L302.71,251.74z M294.34,246.23h6.87l-3.34-11.6
		h-0.17L294.34,246.23z"/>
	<path d="M313.98,259.84h7.16c0.36,1.31,1.9,2.23,4.01,2.23c2.84,0,4.32-1.52,4.32-3.78v-4.17h-0.15c-0.9,2.4-3.57,4.05-6.91,4.05
		c-5.43,0-9.04-4.13-9.04-11.25c0-7.26,3.44-11.62,9.14-11.62c3.3,0,5.82,1.8,6.84,4.36h0.15v-4.03h7.35v22.48
		c0,5.43-4.8,8.81-11.88,8.81C318.51,266.92,314.4,263.97,313.98,259.84z M329.49,246.99c0-3.63-1.65-5.91-4.28-5.91
		c-2.65,0-4.26,2.25-4.26,5.91c0,3.67,1.59,5.72,4.26,5.72C327.86,252.7,329.49,250.66,329.49,246.99z"/>
	<path d="M339.57,251.79c0-4.26,3.28-6.64,9.16-6.99l5.32-0.31v-1.29c0-1.81-1.29-2.82-3.23-2.82c-2,0-3.28,1.04-3.49,2.44h-6.66
		c0.21-4.65,4.17-7.72,10.52-7.72c6.07,0,10.1,3.11,10.1,7.68v15.59h-7.2v-3.23h-0.15c-1.23,2.3-4.01,3.57-6.74,3.57
		C342.99,258.69,339.57,255.9,339.57,251.79z M354.05,250.2v-1.56l-4.13,0.27c-1.94,0.15-3.03,1.04-3.03,2.38
		c0,1.44,1.19,2.32,2.94,2.32C352.09,253.6,354.05,252.22,354.05,250.2z"/>
	<path d="M364.78,230.17c0-2.04,1.65-3.61,3.8-3.61s3.78,1.57,3.78,3.61c0,2.05-1.63,3.63-3.78,3.63S364.78,232.21,364.78,230.17z
		 M364.88,235.63h7.39v22.73h-7.39V235.63z"/>
	<path d="M375.88,235.63h7.2v4.28h0.15c1.17-3.03,3.55-4.72,7.03-4.72c5.07,0,7.89,3.17,7.89,8.58v14.59h-7.39v-13
		c0-2.59-1.23-4.13-3.65-4.13c-2.36,0-3.82,1.77-3.82,4.28v12.85h-7.41V235.63z"/>
	<path d="M411.76,241.08h-3.03v-5.28h3.03v-1.31c0-4.49,2.17-6.55,8.12-6.55c1.31,0,2.77,0.14,3.59,0.31v4.59
		c-0.42-0.06-1.04-0.12-1.63-0.12c-2.02,0-2.88,0.79-2.88,2.11v0.98h4.42v5.28h-4.22v17.28h-7.41V241.08z"/>
	<path d="M425.2,246.99c0-7.43,4.57-11.89,11.62-11.89c7.1,0,11.62,4.44,11.62,11.89c0,7.6-4.47,11.92-11.62,11.92
		C429.66,258.9,425.2,254.56,425.2,246.99z M440.95,247.01c0-4.09-1.61-6.49-4.13-6.49c-2.51,0-4.11,2.4-4.11,6.49
		c0,4.15,1.56,6.47,4.11,6.47C439.35,253.48,440.95,251.16,440.95,247.01z"/>
	<path d="M451.31,235.63h7.2v4.3h0.15c0.83-3.07,2.67-4.63,5.34-4.63c0.75,0,1.38,0.11,1.88,0.29v6.3
		c-0.63-0.25-1.48-0.42-2.36-0.42c-3.11,0-4.8,1.75-4.8,4.92v11.96h-7.41V235.63z"/>
</g>
<g>
	<path d="M209.92,270.82v5.09h4.09v5.45h-4.09v9.54c0,1.57,0.83,2.36,2.61,2.36c0.58,0,1.02-0.02,1.46-0.11v5.26
		c-0.71,0.15-1.79,0.27-3.23,0.27c-5.91,0-8.24-1.81-8.24-6.28v-11.04h-3.09v-5.45h3.09v-5.09H209.92z"/>
	<path d="M217.18,268.52h7.24v11.67h0.15c1.17-3.05,3.65-4.72,7.12-4.72c5.07,0,7.89,3.21,7.89,8.58v14.59h-7.39v-12.98
		c0-2.57-1.27-4.15-3.72-4.15c-2.48,0-3.88,1.78-3.88,4.32v12.81h-7.41V268.52z"/>
	<path d="M264.74,291.46c-0.71,4.7-4.88,7.72-10.83,7.72c-7.24,0-11.56-4.44-11.56-11.79c0-7.34,4.36-12.02,11.31-12.02
		c6.85,0,11.21,4.49,11.21,11.44v2.09h-15.34v0.46c0,2.71,1.82,4.59,4.49,4.59c1.98,0,3.53-0.94,4.05-2.48H264.74z M249.64,284.68
		h8.26c-0.12-2.42-1.77-4.05-4.11-4.05C251.51,280.63,249.82,282.32,249.64,284.68z"/>
	<path d="M284.45,298.64l-9.6-30.11h8.7l5.8,22.62h0.17l5.78-22.62h8.39l-9.6,30.11H284.45z"/>
	<path d="M326.87,298.64h-7.18v-4.3h-0.15c-1.02,2.98-3.19,4.74-6.62,4.74c-4.88,0-8.33-3.19-8.33-8.56v-14.61h7.41v13
		c0,2.69,1.4,4.13,3.71,4.13c2.3,0,3.76-1.71,3.76-4.28v-12.85h7.39V298.64z"/>
	<path d="M330.57,268.52h7.41v30.11h-7.41V268.52z"/>
	<path d="M341.65,275.91h7.2v4.28H349c1.17-3.03,3.55-4.72,7.03-4.72c5.07,0,7.89,3.17,7.89,8.58v14.59h-7.39v-13
		c0-2.59-1.23-4.13-3.65-4.13c-2.36,0-3.82,1.78-3.82,4.28v12.85h-7.41V275.91z"/>
	<path d="M389.09,291.46c-0.71,4.7-4.88,7.72-10.83,7.72c-7.24,0-11.56-4.44-11.56-11.79c0-7.34,4.36-12.02,11.31-12.02
		c6.85,0,11.21,4.49,11.21,11.44v2.09h-15.34v0.46c0,2.71,1.82,4.59,4.49,4.59c1.98,0,3.53-0.94,4.05-2.48H389.09z M373.98,284.68
		h8.26c-0.12-2.42-1.77-4.05-4.11-4.05C375.86,280.63,374.17,282.32,373.98,284.68z"/>
	<path d="M392.08,275.91h7.2v4.3h0.15c0.83-3.07,2.67-4.63,5.34-4.63c0.75,0,1.38,0.11,1.88,0.29v6.3
		c-0.63-0.25-1.48-0.42-2.36-0.42c-3.11,0-4.8,1.75-4.8,4.92v11.96h-7.41V275.91z"/>
	<path d="M407.44,292.06c0-4.26,3.28-6.64,9.16-6.99l5.32-0.31v-1.29c0-1.81-1.29-2.82-3.23-2.82c-2,0-3.28,1.04-3.48,2.44h-6.66
		c0.21-4.65,4.17-7.72,10.52-7.72c6.07,0,10.1,3.11,10.1,7.68v15.59h-7.2v-3.23h-0.15c-1.23,2.3-4.01,3.57-6.74,3.57
		C410.86,298.97,407.44,296.17,407.44,292.06z M421.92,290.48v-1.56l-4.13,0.27c-1.94,0.15-3.03,1.04-3.03,2.38
		c0,1.44,1.19,2.32,2.94,2.32C419.96,293.88,421.92,292.5,421.92,290.48z"/>
	<path d="M440.33,294.73h-0.14v3.9h-7.37v-30.11h7.41v11.42h0.15c1.15-2.73,3.63-4.36,6.87-4.36c5.74,0,9.06,4.28,9.06,11.71
		c0,7.41-3.3,11.69-8.99,11.69C443.96,298.97,441.48,297.36,440.33,294.73z M440.18,287.28c0.02,3.63,1.69,5.91,4.28,5.91
		c2.63,0,4.28-2.3,4.28-5.91c0-3.61-1.67-5.93-4.28-5.93C441.89,281.36,440.2,283.69,440.18,287.28z"/>
	<path d="M459.3,268.52h7.41v30.11h-7.41V268.52z"/>
	<path d="M492.08,291.46c-0.71,4.7-4.88,7.72-10.83,7.72c-7.24,0-11.56-4.44-11.56-11.79c0-7.34,4.36-12.02,11.31-12.02
		c6.85,0,11.21,4.49,11.21,11.44v2.09h-15.34v0.46c0,2.71,1.82,4.59,4.49,4.59c1.98,0,3.53-0.94,4.05-2.48H492.08z M476.98,284.68
		h8.26c-0.12-2.42-1.77-4.05-4.11-4.05C478.85,280.63,477.16,282.32,476.98,284.68z"/>
</g>
<g>
	<path d="M220,330.79c-2.07,1.75-5.45,2.78-9.14,2.78c-6.62,0-10.73-3.19-10.73-8.37c0-3.38,1.65-5.74,5.4-7.85
		c0.17-0.08,1.42-0.79,1.46-0.79c-2.73-2.78-3.74-4.63-3.74-6.85c0-4.13,3.82-7.16,9.01-7.16c5.22,0,8.81,2.84,8.81,6.97
		c0,3.09-1.96,5.7-5.91,7.89l4.82,5.2c0.58-1.02,0.88-2.48,0.88-4.47v-1.96h5.95v2.48c0,3.19-0.98,6.28-2.59,8.35l5.78,5.99h-7.93
		L220,330.79z M206.87,324.57c0,2.34,1.92,3.88,4.76,3.88c1.9,0,3.73-0.65,4.65-1.71l-6.05-6.49c-0.23,0.08-0.59,0.27-0.75,0.38
		C207.62,321.82,206.87,322.97,206.87,324.57z M215.2,310.09c0-1.69-1.19-2.9-2.88-2.9c-1.71,0-2.94,1.23-2.94,2.9
		c0,1.25,0.67,2.3,2.57,4.09C214.2,312.99,215.2,311.74,215.2,310.09z"/>
	<path d="M260.8,333.01h-20.64v-30.11h20.64v6.18h-12.98v5.99h12.21v5.63h-12.21v6.14h12.98V333.01z"/>
	<path d="M264.75,302.89h7.41v30.11h-7.41V302.89z"/>
	<path d="M275.14,321.59c0-7.26,3.46-11.64,9.14-11.64c3.3,0,5.8,1.8,6.8,4.34h0.15v-11.39h7.39v30.11h-7.35v-3.9h-0.15
		c-0.92,2.42-3.55,4.24-6.93,4.24C278.54,333.34,275.14,328.94,275.14,321.59z M282.71,321.65c0,3.67,1.59,5.9,4.26,5.9
		c2.67,0,4.28-2.21,4.28-5.9c0-3.65-1.63-5.93-4.28-5.93C284.32,315.73,282.71,318,282.71,321.65z"/>
	<path d="M323.93,325.83c-0.71,4.7-4.88,7.72-10.83,7.72c-7.24,0-11.56-4.44-11.56-11.79c0-7.34,4.36-12.02,11.31-12.02
		c6.85,0,11.21,4.49,11.21,11.44v2.09h-15.34v0.46c0,2.71,1.82,4.59,4.49,4.59c1.98,0,3.53-0.94,4.05-2.48H323.93z M308.82,319.04
		h8.26c-0.12-2.42-1.77-4.05-4.11-4.05C310.7,315,309.01,316.69,308.82,319.04z"/>
	<path d="M326.92,310.28h7.2v4.3h0.15c0.83-3.07,2.67-4.63,5.34-4.63c0.75,0,1.38,0.11,1.88,0.29v6.3
		c-0.63-0.25-1.48-0.42-2.36-0.42c-3.11,0-4.8,1.75-4.8,4.92v11.96h-7.41V310.28z"/>
	<path d="M343.84,302.89h7.41v30.11h-7.41V302.89z"/>
	<path d="M355.66,341.35v-5.59c0.11,0.02,1.48,0.04,1.61,0.04c2.32,0,3.42-0.58,3.61-1.96c0-0.12,0.08-0.69,0.04-0.83l-7.66-22.73
		h8.16l4.11,17.17h0.13l4.09-17.17h7.81l-7.26,22.66c-1.94,6.09-5.28,8.43-11.94,8.43C358.25,341.37,355.76,341.37,355.66,341.35z"
		/>
</g>
</svg>
